<mxfile host="65bd71144e">
    <diagram id="JsVnDIZ5WUHZcvN6XWwl" name="Page-1">
        <mxGraphModel dx="644" dy="369" grid="0" gridSize="10" guides="1" tooltips="1" connect="1" arrows="1" fold="1" page="1" pageScale="1" pageWidth="827" pageHeight="1169" math="1" shadow="1">
            <root>
                <mxCell id="0"/>
                <mxCell id="1" parent="0"/>
                <mxCell id="smX56x16pPYq-yeECZq9-1" value="" style="rounded=0;whiteSpace=wrap;html=1;" parent="1" vertex="1">
                    <mxGeometry x="61" y="31" width="711" height="324" as="geometry"/>
                </mxCell>
                <mxCell id="smX56x16pPYq-yeECZq9-3" value="Tanggal Awal" style="rounded=0;whiteSpace=wrap;html=1;" parent="1" vertex="1">
                    <mxGeometry x="81" y="75" width="90" height="24" as="geometry"/>
                </mxCell>
                <mxCell id="smX56x16pPYq-yeECZq9-4" value="Tanggal Akhir" style="rounded=0;whiteSpace=wrap;html=1;" parent="1" vertex="1">
                    <mxGeometry x="231" y="75" width="90" height="24" as="geometry"/>
                </mxCell>
                <mxCell id="smX56x16pPYq-yeECZq9-5" value="sampai" style="text;html=1;strokeColor=none;fillColor=none;align=center;verticalAlign=middle;whiteSpace=wrap;rounded=0;" parent="1" vertex="1">
                    <mxGeometry x="180" y="78" width="40" height="20" as="geometry"/>
                </mxCell>
                <mxCell id="smX56x16pPYq-yeECZq9-6" value="&lt;font style=&quot;font-size: 14px&quot;&gt;&lt;b&gt;Tentukan Range Laporan&lt;/b&gt;&lt;/font&gt;" style="text;html=1;strokeColor=none;fillColor=none;align=left;verticalAlign=middle;whiteSpace=wrap;rounded=0;" parent="1" vertex="1">
                    <mxGeometry x="87" y="43" width="228" height="20" as="geometry"/>
                </mxCell>
                <mxCell id="smX56x16pPYq-yeECZq9-7" value="Pilih Devisi" style="rounded=0;whiteSpace=wrap;html=1;" parent="1" vertex="1">
                    <mxGeometry x="649" y="75" width="90" height="23" as="geometry"/>
                </mxCell>
                <mxCell id="smX56x16pPYq-yeECZq9-27" value="" style="rounded=0;whiteSpace=wrap;html=1;" parent="1" vertex="1">
                    <mxGeometry x="78" y="128" width="666" height="212" as="geometry"/>
                </mxCell>
                <mxCell id="smX56x16pPYq-yeECZq9-28" value="" style="shape=table;html=1;whiteSpace=wrap;startSize=0;container=1;collapsible=0;childLayout=tableLayout;" parent="1" vertex="1">
                    <mxGeometry x="115.13" y="209" width="602.75" height="85.75" as="geometry"/>
                </mxCell>
                <mxCell id="smX56x16pPYq-yeECZq9-29" value="" style="shape=partialRectangle;html=1;whiteSpace=wrap;collapsible=0;dropTarget=0;pointerEvents=0;fillColor=none;top=0;left=0;bottom=0;right=0;points=[[0,0.5],[1,0.5]];portConstraint=eastwest;" parent="smX56x16pPYq-yeECZq9-28" vertex="1">
                    <mxGeometry width="602.75" height="31" as="geometry"/>
                </mxCell>
                <mxCell id="smX56x16pPYq-yeECZq9-30" value="NO" style="shape=partialRectangle;html=1;whiteSpace=wrap;connectable=0;overflow=hidden;fillColor=none;top=0;left=0;bottom=0;right=0;" parent="smX56x16pPYq-yeECZq9-29" vertex="1">
                    <mxGeometry width="45" height="31" as="geometry"/>
                </mxCell>
                <mxCell id="smX56x16pPYq-yeECZq9-31" value="Tanggal" style="shape=partialRectangle;html=1;whiteSpace=wrap;connectable=0;overflow=hidden;fillColor=none;top=0;left=0;bottom=0;right=0;" parent="smX56x16pPYq-yeECZq9-29" vertex="1">
                    <mxGeometry x="45" width="75" height="31" as="geometry"/>
                </mxCell>
                <mxCell id="smX56x16pPYq-yeECZq9-32" value="NIK" style="shape=partialRectangle;html=1;whiteSpace=wrap;connectable=0;overflow=hidden;fillColor=none;top=0;left=0;bottom=0;right=0;" parent="smX56x16pPYq-yeECZq9-29" vertex="1">
                    <mxGeometry x="120" width="79" height="31" as="geometry"/>
                </mxCell>
                <mxCell id="smX56x16pPYq-yeECZq9-33" value="Devisi" style="shape=partialRectangle;html=1;whiteSpace=wrap;connectable=0;overflow=hidden;fillColor=none;top=0;left=0;bottom=0;right=0;" parent="smX56x16pPYq-yeECZq9-29" vertex="1">
                    <mxGeometry x="199" width="66" height="31" as="geometry"/>
                </mxCell>
                <mxCell id="smX56x16pPYq-yeECZq9-34" value="Nama Karyawan" style="shape=partialRectangle;html=1;whiteSpace=wrap;connectable=0;overflow=hidden;fillColor=none;top=0;left=0;bottom=0;right=0;" parent="smX56x16pPYq-yeECZq9-29" vertex="1">
                    <mxGeometry x="265" width="135" height="31" as="geometry"/>
                </mxCell>
                <mxCell id="smX56x16pPYq-yeECZq9-35" value="Skor" style="shape=partialRectangle;html=1;whiteSpace=wrap;connectable=0;overflow=hidden;fillColor=none;top=0;left=0;bottom=0;right=0;" parent="smX56x16pPYq-yeECZq9-29" vertex="1">
                    <mxGeometry x="400" width="54" height="31" as="geometry"/>
                </mxCell>
                <mxCell id="smX56x16pPYq-yeECZq9-36" value="Huruf" style="shape=partialRectangle;html=1;whiteSpace=wrap;connectable=0;overflow=hidden;fillColor=none;top=0;left=0;bottom=0;right=0;" parent="smX56x16pPYq-yeECZq9-29" vertex="1">
                    <mxGeometry x="454" width="54" height="31" as="geometry"/>
                </mxCell>
                <mxCell id="smX56x16pPYq-yeECZq9-37" value="Action" style="shape=partialRectangle;html=1;whiteSpace=wrap;connectable=0;overflow=hidden;fillColor=none;top=0;left=0;bottom=0;right=0;" parent="smX56x16pPYq-yeECZq9-29" vertex="1">
                    <mxGeometry x="508" width="95" height="31" as="geometry"/>
                </mxCell>
                <mxCell id="smX56x16pPYq-yeECZq9-38" value="" style="shape=partialRectangle;html=1;whiteSpace=wrap;collapsible=0;dropTarget=0;pointerEvents=0;fillColor=none;top=0;left=0;bottom=0;right=0;points=[[0,0.5],[1,0.5]];portConstraint=eastwest;" parent="smX56x16pPYq-yeECZq9-28" vertex="1">
                    <mxGeometry y="31" width="602.75" height="55" as="geometry"/>
                </mxCell>
                <mxCell id="smX56x16pPYq-yeECZq9-39" value="1" style="shape=partialRectangle;html=1;whiteSpace=wrap;connectable=0;overflow=hidden;fillColor=none;top=0;left=0;bottom=0;right=0;" parent="smX56x16pPYq-yeECZq9-38" vertex="1">
                    <mxGeometry width="45" height="55" as="geometry"/>
                </mxCell>
                <mxCell id="smX56x16pPYq-yeECZq9-40" value="20-12-2021" style="shape=partialRectangle;html=1;whiteSpace=wrap;connectable=0;overflow=hidden;fillColor=none;top=0;left=0;bottom=0;right=0;" parent="smX56x16pPYq-yeECZq9-38" vertex="1">
                    <mxGeometry x="45" width="75" height="55" as="geometry"/>
                </mxCell>
                <mxCell id="smX56x16pPYq-yeECZq9-41" value="4478" style="shape=partialRectangle;html=1;whiteSpace=wrap;connectable=0;overflow=hidden;fillColor=none;top=0;left=0;bottom=0;right=0;" parent="smX56x16pPYq-yeECZq9-38" vertex="1">
                    <mxGeometry x="120" width="79" height="55" as="geometry"/>
                </mxCell>
                <mxCell id="smX56x16pPYq-yeECZq9-42" value="Staf" style="shape=partialRectangle;html=1;whiteSpace=wrap;connectable=0;overflow=hidden;fillColor=none;top=0;left=0;bottom=0;right=0;" parent="smX56x16pPYq-yeECZq9-38" vertex="1">
                    <mxGeometry x="199" width="66" height="55" as="geometry"/>
                </mxCell>
                <mxCell id="smX56x16pPYq-yeECZq9-43" value="Diandra Indah" style="shape=partialRectangle;html=1;whiteSpace=wrap;connectable=0;overflow=hidden;fillColor=none;top=0;left=0;bottom=0;right=0;align=left;" parent="smX56x16pPYq-yeECZq9-38" vertex="1">
                    <mxGeometry x="265" width="135" height="55" as="geometry"/>
                </mxCell>
                <mxCell id="smX56x16pPYq-yeECZq9-44" value="96" style="shape=partialRectangle;html=1;whiteSpace=wrap;connectable=0;overflow=hidden;fillColor=none;top=0;left=0;bottom=0;right=0;" parent="smX56x16pPYq-yeECZq9-38" vertex="1">
                    <mxGeometry x="400" width="54" height="55" as="geometry"/>
                </mxCell>
                <mxCell id="smX56x16pPYq-yeECZq9-45" value="A" style="shape=partialRectangle;html=1;whiteSpace=wrap;connectable=0;overflow=hidden;fillColor=none;top=0;left=0;bottom=0;right=0;" parent="smX56x16pPYq-yeECZq9-38" vertex="1">
                    <mxGeometry x="454" width="54" height="55" as="geometry"/>
                </mxCell>
                <mxCell id="smX56x16pPYq-yeECZq9-46" value="" style="shape=partialRectangle;html=1;whiteSpace=wrap;connectable=0;overflow=hidden;fillColor=none;top=0;left=0;bottom=0;right=0;" parent="smX56x16pPYq-yeECZq9-38" vertex="1">
                    <mxGeometry x="508" width="95" height="55" as="geometry"/>
                </mxCell>
                <mxCell id="smX56x16pPYq-yeECZq9-47" value="Filter" style="rounded=0;whiteSpace=wrap;html=1;" parent="1" vertex="1">
                    <mxGeometry x="98" y="106" width="56" height="18" as="geometry"/>
                </mxCell>
                <mxCell id="smX56x16pPYq-yeECZq9-48" value="Clear" style="rounded=0;whiteSpace=wrap;html=1;" parent="1" vertex="1">
                    <mxGeometry x="171" y="106" width="56" height="18" as="geometry"/>
                </mxCell>
                <mxCell id="smX56x16pPYq-yeECZq9-49" value="&lt;b&gt;Laporan Kinerja Karyawan&lt;/b&gt;" style="text;html=1;strokeColor=none;fillColor=none;align=left;verticalAlign=middle;whiteSpace=wrap;rounded=0;" parent="1" vertex="1">
                    <mxGeometry x="87" y="140" width="200" height="20" as="geometry"/>
                </mxCell>
                <mxCell id="smX56x16pPYq-yeECZq9-50" value="10" style="rounded=0;whiteSpace=wrap;html=1;" parent="1" vertex="1">
                    <mxGeometry x="624" y="176" width="32" height="17" as="geometry"/>
                </mxCell>
                <mxCell id="smX56x16pPYq-yeECZq9-51" value="Show" style="text;html=1;strokeColor=none;fillColor=none;align=center;verticalAlign=middle;whiteSpace=wrap;rounded=0;" parent="1" vertex="1">
                    <mxGeometry x="580" y="173" width="40" height="20" as="geometry"/>
                </mxCell>
                <mxCell id="smX56x16pPYq-yeECZq9-52" value="Entiries" style="text;html=1;strokeColor=none;fillColor=none;align=center;verticalAlign=middle;whiteSpace=wrap;rounded=0;" parent="1" vertex="1">
                    <mxGeometry x="668" y="176" width="40" height="20" as="geometry"/>
                </mxCell>
                <mxCell id="smX56x16pPYq-yeECZq9-53" value="&amp;nbsp; &amp;nbsp;Search" style="ellipse;whiteSpace=wrap;html=1;" parent="1" vertex="1">
                    <mxGeometry x="618" y="132" width="97" height="31" as="geometry"/>
                </mxCell>
                <mxCell id="smX56x16pPYq-yeECZq9-54" value="" style="pointerEvents=1;shadow=0;dashed=0;html=1;strokeColor=none;fillColor=#505050;labelPosition=center;verticalLabelPosition=bottom;verticalAlign=top;outlineConnect=0;align=center;shape=mxgraph.office.concepts.search;rotation=-90;" parent="1" vertex="1">
                    <mxGeometry x="636" y="140" width="20" height="18" as="geometry"/>
                </mxCell>
                <mxCell id="smX56x16pPYq-yeECZq9-55" value="Previous" style="rounded=0;whiteSpace=wrap;html=1;" parent="1" vertex="1">
                    <mxGeometry x="582" y="301" width="62" height="20" as="geometry"/>
                </mxCell>
                <mxCell id="smX56x16pPYq-yeECZq9-56" value="Next" style="rounded=0;whiteSpace=wrap;html=1;" parent="1" vertex="1">
                    <mxGeometry x="649" y="301" width="62" height="20" as="geometry"/>
                </mxCell>
                <mxCell id="smX56x16pPYq-yeECZq9-57" value="Folowing 1 to 1 entries" style="text;html=1;strokeColor=none;fillColor=none;align=left;verticalAlign=middle;whiteSpace=wrap;rounded=0;" parent="1" vertex="1">
                    <mxGeometry x="115.13" y="307" width="176" height="20" as="geometry"/>
                </mxCell>
                <mxCell id="smX56x16pPYq-yeECZq9-58" value="EDIT" style="rounded=1;whiteSpace=wrap;html=1;" parent="1" vertex="1">
                    <mxGeometry x="632" y="254" width="79" height="18" as="geometry"/>
                </mxCell>
            </root>
        </mxGraphModel>
    </diagram>
</mxfile>